PathFileType	4	(X/Y/Z)	C:\Users\WrightLab\Desktop\Jo\P4V113.trc
DataRate	CameraRate	NumFrames	NumMarkers	Units	OrigDataRate	OrigDataStartFrame	OrigNumFrames
100.00	100.00	       8	19	mm	100.00	71	       567
Frame#	Time	Headset_Front			Headset_Back			Headset_Left			Headset_Right			Left_Shoulder			Right_Shoulder			Sternum			C7			Left Elbow			Right Elbow			Left Wrist			Right Wrist			Left ASIS			Right ASIS			S2			Left Knee			Right Knee			Left Ankle			Right Ankle			
		X1	Y1	Z1	X2	Y2	Z2	X3	Y3	Z3	X4	Y4	Z4	X5	Y5	Z5	X6	Y6	Z6	X7	Y7	Z7	X8	Y8	Z8	X9	Y9	Z9	X10	Y10	Z10	X11	Y11	Z11	X12	Y12	Z12	X13	Y13	Z13	X14	Y14	Z14	X15	Y15	Z15	X16	Y16	Z16	X17	Y17	Z17	X18	Y18	Z18	X19	Y19	Z19	

71	0.700	-462.37921	1766.14905	-1023.83820	-573.32007	1658.99207	-847.67224							-483.01779	1422.12732	-897.85522	-595.67316	1498.19409	-1056.77783				-441.00775	1541.71411	-1040.70935	-157.17722	1161.76843	-916.28601	-733.07343	1152.26489	-1119.52637	-227.29454	876.36224	-807.89618	-781.26447	897.33301	-954.48071	-323.30106	1003.51343	-891.85889	-620.18524	1014.79211	-1042.39453				-384.60718	561.17181	-761.22809	-603.37433	527.39124	-1086.08301	-336.12216	124.26861	-1038.60388				
72	0.710	-465.90353	1765.68494	-1016.66833	-575.94952	1659.51819	-839.85040							-487.45047	1421.83984	-889.82666	-600.04608	1498.01453	-1047.87964				-445.42007	1540.73633	-1032.60596	-160.87047	1161.72412	-910.86584	-738.52820	1152.70691	-1109.61292	-230.04416	875.78430	-803.40729	-786.60327	899.13910	-941.51019	-327.44867	1004.30530	-884.19293	-625.03180	1012.11578	-1037.48193				-393.43817	562.82080	-751.34460	-604.36389	526.83240	-1083.04114	-353.04752	114.58796	-1011.74731				
73	0.720	-469.42831	1765.24036	-1009.33270										-490.17673	1421.53430	-881.99310	-604.20471	1497.80212	-1039.50916				-449.41379	1540.54224	-1025.40381	-164.57452	1160.79419	-902.28833	-744.61890	1153.13647	-1100.34900	-232.64182	875.08691	-795.74060	-791.98047	902.99158	-929.62158	-331.68094	1003.16821	-877.65381	-628.82471	1015.08453	-1027.32312				-400.00052	565.91815	-741.41278	-605.25482	526.37714	-1079.58435	-371.52484	103.80025	-983.66046				
74	0.730	-472.78766	1764.37231	-1002.15894	-581.13245	1659.71570	-822.88385							-493.42590	1420.77954	-873.83417	-608.30212	1497.41125	-1030.90320				-453.32791	1540.09253	-1017.03516	-167.35580	1160.20703	-896.65906	-749.17059	1152.72131	-1089.78516	-235.18079	874.11340	-789.88464	-796.48456	904.91498	-914.70544	-334.52411	1003.50323	-869.25836	-632.96240	1013.70105	-1014.15369				-406.24863	566.80017	-733.16821	-606.48297	526.15271	-1076.35767	-388.29706	94.97292	-955.52838				
75	0.740	-476.10806	1763.45068	-994.92712	-583.40918	1659.83411	-814.93359							-495.38815	1420.83313	-865.99585	-612.26324	1496.73840	-1021.46320				-457.15979	1539.26660	-1009.13422	-170.52875	1158.90527	-891.06549	-754.27051	1152.46399	-1079.23083	-237.34985	873.83954	-784.87671	-800.38916	906.28760	-900.43762	-337.86032	1002.92261	-861.98700	-635.93994	1011.21661	-1011.73688				-412.00317	567.67413	-725.41754	-608.03815	525.64026	-1071.84253	-405.82117	86.06458	-927.87878				
76	0.750	-479.27164	1762.42554	-986.87482	-585.66888	1659.49133	-805.65961							-500.06036	1420.24402	-857.67999	-616.09393	1495.79675	-1012.21039				-460.80615	1538.58850	-1001.17346	-173.58226	1158.65198	-885.28503	-759.68793	1152.42554	-1069.35754	-238.95972	872.00568	-778.29700	-804.74170	909.36841	-887.36340	-342.37820	1001.71997	-854.43890	-640.07013	1010.94312	-1005.09747				-418.50156	567.31775	-717.47266	-609.74713	525.29999	-1068.28601	-422.99838	77.07547	-899.46991				
77	0.760	-482.22104	1761.60107	-979.74219	-587.73834	1659.34448	-797.21350							-502.54208	1419.25415	-848.88971	-619.62476	1495.35449	-1003.33331				-464.28296	1537.61829	-992.97986	-176.58897	1157.56311	-879.34283	-764.84534	1151.98926	-1058.12891	-241.26816	870.83228	-772.17584	-808.05688	910.43689	-871.76050	-346.17770	1000.64209	-846.69177	-643.63605	1008.68237	-994.57336				-423.47189	566.75647	-710.69543	-611.39801	524.24927	-1063.51099	-439.23624	68.91554	-870.48492				
78	0.770	-485.29419	1760.03479	-971.83569										-504.84570	1417.85620	-840.35150	-623.13391	1494.31531	-994.27655				-467.69846	1536.50769	-984.90973	-179.03946	1156.39563	-873.50531	-768.66797	1151.03577	-1047.52966	-243.26953	869.13837	-766.89893	-812.04205	912.26147	-858.69720	-349.35092	1000.04761	-838.68127	-648.12372	1008.68268	-986.59814				-426.64752	566.39899	-703.03131	-612.93976	523.42523	-1058.98413	-455.03558	62.60878	-840.27802				
